<svg width="1942" height="347" viewBox="0 0 1942 347" fill="none" xmlns="http://www.w3.org/2000/svg">
<path d="M247.673 188.838H295.687V236.852H247.673V188.838Z" fill="#FF6816"/>
<path d="M48.0068 188.838H217.331V236.852H48.0068V188.838Z" fill="#263959"/>
<path d="M346.225 1.81909H0V51.5177H74.4263C58.8312 72.3176 49.4605 98.0823 49.4605 126.07V150.925H98.9211V126.07C98.9211 84.9599 132.194 51.5177 173.107 51.5177C214.032 51.5177 247.298 84.9599 247.298 126.07V150.925H296.761V126.07C296.761 98.0823 287.389 72.3176 271.799 51.5177H346.225V1.81909Z" fill="#263959"/>
<path d="M599.067 236.695L514.151 132.723V236.695H467.347V3.34315H514.151V107.984L599.067 3.34315H655.566L559.283 119.016L658.241 236.695H599.067Z" fill="#263959"/>
<path d="M854.513 140.078C854.513 146.765 854.067 152.782 853.176 158.131H717.778C718.892 171.504 723.573 181.979 731.819 189.557C740.065 197.135 750.206 200.924 762.242 200.924C779.626 200.924 791.996 193.457 799.351 178.525H849.832C844.483 196.355 834.231 211.065 819.075 222.654C803.92 234.021 785.31 239.704 763.245 239.704C745.415 239.704 729.367 235.804 715.103 228.003C701.062 219.98 690.03 208.724 682.006 194.237C674.205 179.75 670.305 163.035 670.305 144.09C670.305 124.923 674.205 108.095 682.006 93.6084C689.807 79.1213 700.728 67.9775 714.769 60.1768C728.81 52.3761 744.969 48.4757 763.245 48.4757C780.852 48.4757 796.565 52.2647 810.383 59.8425C824.424 67.4203 835.234 78.2298 842.812 92.2711C850.612 106.089 854.513 122.025 854.513 140.078ZM806.037 126.706C805.814 114.67 801.468 105.087 792.999 97.9545C784.529 90.5995 774.166 86.922 761.907 86.922C750.318 86.922 740.511 90.4881 732.488 97.6201C724.687 104.529 719.895 114.224 718.112 126.706H806.037Z" fill="#263959"/>
<path d="M1052.16 75.5553C1052.16 88.0364 1049.15 99.7375 1043.13 110.658C1037.33 121.579 1028.09 130.383 1015.38 137.069C1002.9 143.756 987.076 147.099 967.908 147.099H928.794V236.695H881.989V3.34315H967.908C985.961 3.34315 1001.34 6.46343 1014.04 12.704C1026.75 18.9445 1036.22 27.5253 1042.46 38.4463C1048.92 49.3673 1052.16 61.7369 1052.16 75.5553ZM965.903 109.321C978.829 109.321 988.413 106.424 994.654 100.629C1000.89 94.6113 1004.01 86.2534 1004.01 75.5553C1004.01 52.8218 991.311 41.4551 965.903 41.4551H928.794V109.321H965.903Z" fill="#263959"/>
<path d="M1159.27 239.036C1143 239.036 1128.29 236.25 1115.14 230.678C1102.21 225.106 1091.96 217.082 1084.38 206.607C1076.81 196.132 1072.91 183.762 1072.68 169.498H1122.83C1123.5 179.082 1126.84 186.66 1132.86 192.231C1139.1 197.803 1147.57 200.589 1158.27 200.589C1169.19 200.589 1177.77 198.026 1184.01 192.9C1190.25 187.551 1193.37 180.642 1193.37 172.173C1193.37 165.263 1191.25 159.58 1187.02 155.122C1182.78 150.665 1177.43 147.21 1170.97 144.759C1164.73 142.084 1156.04 139.187 1144.89 136.066C1129.74 131.609 1117.37 127.263 1107.79 123.028C1098.42 118.571 1090.29 111.996 1083.38 103.304C1076.69 94.3884 1073.35 82.5759 1073.35 67.8661C1073.35 54.0477 1076.81 42.0123 1083.71 31.76C1090.62 21.5076 1100.32 13.7069 1112.8 8.35788C1125.28 2.78596 1139.55 0 1155.59 0C1179.66 0 1199.17 5.90624 1214.1 17.7187C1229.25 29.3083 1237.61 45.5784 1239.17 66.5288H1187.69C1187.24 58.5052 1183.79 51.9303 1177.32 46.8042C1171.08 41.4551 1162.72 38.7806 1152.25 38.7806C1143.11 38.7806 1135.76 41.1208 1130.18 45.8012C1124.84 50.4816 1122.16 57.2794 1122.16 66.1945C1122.16 72.435 1124.17 77.6726 1128.18 81.9073C1132.41 85.9191 1137.54 89.2622 1143.56 91.9368C1149.8 94.3884 1158.49 97.2858 1169.63 100.629C1184.79 105.087 1197.16 109.544 1206.74 114.002C1216.33 118.459 1224.57 125.145 1231.48 134.061C1238.39 142.976 1241.85 154.677 1241.85 169.164C1241.85 181.645 1238.61 193.234 1232.15 203.932C1225.69 214.631 1216.22 223.211 1203.73 229.675C1191.25 235.915 1176.43 239.036 1159.27 239.036Z" fill="#263959"/>
<path d="M1322.54 199.586H1399.43V236.695H1275.74V3.34315H1322.54V199.586Z" fill="#263959"/>
<path d="M1565.58 192.231H1472.64L1457.27 236.695H1408.12L1492.03 3.00882H1546.53L1630.44 236.695H1580.96L1565.58 192.231ZM1552.88 154.788L1519.11 57.168L1485.35 154.788H1552.88Z" fill="#263959"/>
<path d="M1675.85 239.036C1667.38 239.036 1660.36 236.473 1654.79 231.346C1649.44 225.997 1646.76 219.422 1646.76 211.622C1646.76 203.821 1649.44 197.358 1654.79 192.231C1660.36 186.882 1667.38 184.208 1675.85 184.208C1684.09 184.208 1690.89 186.882 1696.24 192.231C1701.59 197.358 1704.26 203.821 1704.26 211.622C1704.26 219.422 1701.59 225.997 1696.24 231.346C1690.89 236.473 1684.09 239.036 1675.85 239.036Z" fill="#263959"/>
<path d="M1838.08 203.011H1767.68L1756.03 236.695H1718.79L1782.37 59.6601H1823.65L1887.22 236.695H1849.74L1838.08 203.011ZM1828.46 174.644L1802.88 100.69L1777.3 174.644H1828.46Z" fill="#FF6816"/>
<path d="M1941.37 59.9134V236.695H1905.92V59.9134H1941.37Z" fill="#FF6816"/>
<path d="M43.8674 302.394V318.918H61.8799V324.236H43.8674V341.256H64.0073V346.575H37.4141V297.076H64.0073V302.394H43.8674Z" fill="#FF6816"/>
<path d="M123.484 341.327H140.787V346.575H117.03V297.147H123.484V341.327Z" fill="#FF6816"/>
<path d="M197.352 302.394V318.918H215.365V324.236H197.352V341.256H217.492V346.575H190.899V297.076H217.492V302.394H197.352Z" fill="#FF6816"/>
<path d="M311.363 297.147L292.712 346.575H285.266L266.615 297.147H273.494L289.024 339.767L304.555 297.147H311.363Z" fill="#FF6816"/>
<path d="M390.914 335.583H369.356L365.385 346.575H358.577L376.447 297.43H383.893L401.693 346.575H394.885L390.914 335.583ZM389.07 330.335L380.135 305.373L371.2 330.335H389.07Z" fill="#FF6816"/>
<path d="M483.163 297.147V302.394H469.689V346.575H463.236V302.394H449.691V297.147H483.163Z" fill="#FF6816"/>
<path d="M540.818 302.394V318.918H558.831V324.236H540.818V341.256H560.958V346.575H534.365V297.076H560.958V302.394H540.818Z" fill="#FF6816"/>
<path d="M682.599 302.394V318.918H700.612V324.236H682.599V341.256H702.739V346.575H676.146V297.076H702.739V302.394H682.599Z" fill="#FF6816"/>
<path d="M796.61 297.147L777.959 346.575H770.513L751.862 297.147H758.741L774.271 339.767L789.802 297.147H796.61Z" fill="#FF6816"/>
<path d="M853.397 302.394V318.918H871.41V324.236H853.397V341.256H873.537V346.575H846.944V297.076H873.537V302.394H853.397Z" fill="#FF6816"/>
<path d="M952.586 346.575L940.814 326.364H933.014V346.575H926.56V297.147H942.516C946.251 297.147 949.395 297.785 951.948 299.061C954.548 300.338 956.487 302.063 957.763 304.238C959.04 306.413 959.678 308.895 959.678 311.684C959.678 315.088 958.685 318.09 956.7 320.69C954.761 323.291 951.83 325.016 947.906 325.867L960.316 346.575H952.586ZM933.014 321.187H942.516C946.015 321.187 948.639 320.336 950.388 318.634C952.137 316.885 953.012 314.568 953.012 311.684C953.012 308.753 952.137 306.484 950.388 304.876C948.686 303.269 946.062 302.465 942.516 302.465H933.014V321.187Z" fill="#FF6816"/>
<path d="M1047.57 297.147L1031.47 327.924V346.575H1025.02V327.924L1008.85 297.147H1016.01L1028.21 322.18L1040.41 297.147H1047.57Z" fill="#FF6816"/>
<path d="M1166.25 302.394V318.918H1184.27V324.236H1166.25V341.256H1186.39V346.575H1159.8V297.076H1186.39V302.394H1166.25Z" fill="#FF6816"/>
<path d="M1259.63 321.896L1274.8 346.575H1267.5L1255.66 327.286L1244.38 346.575H1237.22L1252.32 321.896L1237.15 297.147H1244.38L1256.29 316.506L1267.64 297.147H1274.87L1259.63 321.896Z" fill="#FF6816"/>
<path d="M1359.77 311.613C1359.77 315.726 1358.35 319.154 1355.51 321.896C1352.72 324.591 1348.44 325.938 1342.68 325.938H1333.17V346.575H1326.72V297.147H1342.68C1348.25 297.147 1352.49 298.494 1355.37 301.189C1358.3 303.884 1359.77 307.358 1359.77 311.613ZM1342.68 320.62C1346.27 320.62 1348.92 319.839 1350.62 318.279C1352.32 316.719 1353.17 314.497 1353.17 311.613C1353.17 305.515 1349.67 302.465 1342.68 302.465H1333.17V320.62H1342.68Z" fill="#FF6816"/>
<path d="M1417.5 302.394V318.918H1435.51V324.236H1417.5V341.256H1437.64V346.575H1411.05V297.076H1437.64V302.394H1417.5Z" fill="#FF6816"/>
<path d="M1516.69 346.575L1504.92 326.364H1497.12V346.575H1490.66V297.147H1506.62C1510.35 297.147 1513.5 297.785 1516.05 299.061C1518.65 300.338 1520.59 302.063 1521.86 304.238C1523.14 306.413 1523.78 308.895 1523.78 311.684C1523.78 315.088 1522.79 318.09 1520.8 320.69C1518.86 323.291 1515.93 325.016 1512.01 325.867L1524.42 346.575H1516.69ZM1497.12 321.187H1506.62C1510.12 321.187 1512.74 320.336 1514.49 318.634C1516.24 316.885 1517.11 314.568 1517.11 311.684C1517.11 308.753 1516.24 306.484 1514.49 304.876C1512.79 303.269 1510.16 302.465 1506.62 302.465H1497.12V321.187Z" fill="#FF6816"/>
<path d="M1583.52 297.147V346.575H1577.07V297.147H1583.52Z" fill="#FF6816"/>
<path d="M1644.23 302.394V318.918H1662.24V324.236H1644.23V341.256H1664.37V346.575H1637.78V297.076H1664.37V302.394H1644.23Z" fill="#FF6816"/>
<path d="M1756.25 346.575H1749.8L1723.85 307.217V346.575H1717.39V297.076H1723.85L1749.8 336.363V297.076H1756.25V346.575Z" fill="#FF6816"/>
<path d="M1808.1 321.825C1808.1 317.003 1809.19 312.677 1811.36 308.848C1813.54 304.971 1816.49 301.945 1820.23 299.77C1824.01 297.596 1828.19 296.508 1832.78 296.508C1838.17 296.508 1842.87 297.808 1846.89 300.409C1850.91 303.009 1853.84 306.696 1855.69 311.471H1847.96C1846.59 308.493 1844.6 306.2 1842 304.593C1839.45 302.985 1836.37 302.182 1832.78 302.182C1829.33 302.182 1826.23 302.985 1823.49 304.593C1820.75 306.2 1818.6 308.493 1817.04 311.471C1815.48 314.403 1814.7 317.854 1814.7 321.825C1814.7 325.749 1815.48 329.2 1817.04 332.179C1818.6 335.11 1820.75 337.379 1823.49 338.987C1826.23 340.594 1829.33 341.398 1832.78 341.398C1836.37 341.398 1839.45 340.618 1842 339.058C1844.6 337.45 1846.59 335.157 1847.96 332.179H1855.69C1853.84 336.906 1850.91 340.57 1846.89 343.171C1842.87 345.724 1838.17 347 1832.78 347C1828.19 347 1824.01 345.936 1820.23 343.809C1816.49 341.634 1813.54 338.632 1811.36 334.803C1809.19 330.973 1808.1 326.647 1808.1 321.825Z" fill="#FF6816"/>
<path d="M1915 302.394V318.918H1933.02V324.236H1915V341.256H1935.14V346.575H1908.55V297.076H1935.14V302.394H1915Z" fill="#FF6816"/>
</svg>
