<svg width="21" height="21" viewBox="0 0 21 21" fill="none" xmlns="http://www.w3.org/2000/svg">
<path d="M10.5 20.9167C9.07643 20.9167 7.73094 20.6432 6.46358 20.0964C5.19622 19.5495 4.08945 18.803 3.14327 17.8568C2.19709 16.9106 1.45056 15.8038 0.903687 14.5365C0.356811 13.2691 0.083374 11.9236 0.083374 10.5C0.083374 9.05904 0.356811 7.70921 0.903687 6.45053C1.45056 5.19185 2.19709 4.08942 3.14327 3.14324C4.08945 2.19706 5.19622 1.45053 6.46358 0.903656C7.73094 0.356781 9.07643 0.0833435 10.5 0.0833435C11.941 0.0833435 13.2908 0.356781 14.5495 0.903656C15.8082 1.45053 16.9106 2.19706 17.8568 3.14324C18.803 4.08942 19.5495 5.19185 20.0964 6.45053C20.6433 7.70921 20.9167 9.05904 20.9167 10.5C20.9167 11.9236 20.6433 13.2691 20.0964 14.5365C19.5495 15.8038 18.803 16.9106 17.8568 17.8568C16.9106 18.803 15.8082 19.5495 14.5495 20.0964C13.2908 20.6432 11.941 20.9167 10.5 20.9167ZM10.5 18.7813C10.9514 18.1563 11.3421 17.5052 11.6719 16.8281C12.0018 16.1511 12.2709 15.4306 12.4792 14.6667H8.52087C8.72921 15.4306 8.9983 16.1511 9.32817 16.8281C9.65803 17.5052 10.0487 18.1563 10.5 18.7813ZM7.79171 18.3646C7.47921 17.7917 7.20577 17.1971 6.9714 16.5807C6.73702 15.9644 6.54171 15.3264 6.38546 14.6667H3.31254C3.81601 15.5347 4.44535 16.2899 5.20056 16.9323C5.95577 17.5747 6.81949 18.0521 7.79171 18.3646ZM13.2084 18.3646C14.1806 18.0521 15.0443 17.5747 15.7995 16.9323C16.5547 16.2899 17.1841 15.5347 17.6875 14.6667H14.6146C14.4584 15.3264 14.2631 15.9644 14.0287 16.5807C13.7943 17.1971 13.5209 17.7917 13.2084 18.3646ZM2.42712 12.5833H5.96879C5.91671 12.2361 5.87764 11.8932 5.8516 11.5547C5.82556 11.2162 5.81254 10.8646 5.81254 10.5C5.81254 10.1354 5.82556 9.78386 5.8516 9.44532C5.87764 9.10678 5.91671 8.7639 5.96879 8.41668H2.42712C2.34032 8.7639 2.27521 9.10678 2.23181 9.44532C2.18841 9.78386 2.16671 10.1354 2.16671 10.5C2.16671 10.8646 2.18841 11.2162 2.23181 11.5547C2.27521 11.8932 2.34032 12.2361 2.42712 12.5833ZM8.05212 12.5833H12.948C13 12.2361 13.0391 11.8932 13.0651 11.5547C13.0912 11.2162 13.1042 10.8646 13.1042 10.5C13.1042 10.1354 13.0912 9.78386 13.0651 9.44532C13.0391 9.10678 13 8.7639 12.948 8.41668H8.05212C8.00004 8.7639 7.96098 9.10678 7.93494 9.44532C7.90889 9.78386 7.89587 10.1354 7.89587 10.5C7.89587 10.8646 7.90889 11.2162 7.93494 11.5547C7.96098 11.8932 8.00004 12.2361 8.05212 12.5833ZM15.0313 12.5833H18.573C18.6598 12.2361 18.7249 11.8932 18.7683 11.5547C18.8117 11.2162 18.8334 10.8646 18.8334 10.5C18.8334 10.1354 18.8117 9.78386 18.7683 9.44532C18.7249 9.10678 18.6598 8.7639 18.573 8.41668H15.0313C15.0834 8.7639 15.1224 9.10678 15.1485 9.44532C15.1745 9.78386 15.1875 10.1354 15.1875 10.5C15.1875 10.8646 15.1745 11.2162 15.1485 11.5547C15.1224 11.8932 15.0834 12.2361 15.0313 12.5833ZM14.6146 6.33334H17.6875C17.1841 5.46529 16.5547 4.71008 15.7995 4.06772C15.0443 3.42536 14.1806 2.94793 13.2084 2.63543C13.5209 3.20834 13.7943 3.80296 14.0287 4.41928C14.2631 5.0356 14.4584 5.67362 14.6146 6.33334ZM8.52087 6.33334H12.4792C12.2709 5.56945 12.0018 4.84897 11.6719 4.17189C11.3421 3.4948 10.9514 2.84376 10.5 2.21876C10.0487 2.84376 9.65803 3.4948 9.32817 4.17189C8.9983 4.84897 8.72921 5.56945 8.52087 6.33334ZM3.31254 6.33334H6.38546C6.54171 5.67362 6.73702 5.0356 6.9714 4.41928C7.20577 3.80296 7.47921 3.20834 7.79171 2.63543C6.81949 2.94793 5.95577 3.42536 5.20056 4.06772C4.44535 4.71008 3.81601 5.46529 3.31254 6.33334Z" fill="#A19B9B"/>
</svg>
