<svg width="23" height="25" viewBox="0 0 23 25" fill="none" xmlns="http://www.w3.org/2000/svg">
<path d="M13.3021 21.875C13.1189 22.1907 12.8561 22.4528 12.5398 22.6349C12.2236 22.8171 11.865 22.913 11.5 22.913C11.135 22.913 10.7764 22.8171 10.4602 22.6349C10.1439 22.4528 9.88105 22.1907 9.69792 21.875M17.75 8.33334C17.75 6.67574 17.0915 5.08603 15.9194 3.91393C14.7473 2.74182 13.1576 2.08334 11.5 2.08334C9.8424 2.08334 8.25268 2.74182 7.08058 3.91393C5.90848 5.08603 5.25 6.67574 5.25 8.33334C5.25 15.625 2.125 17.7083 2.125 17.7083H20.875C20.875 17.7083 17.75 15.625 17.75 8.33334Z" stroke="#B3B3B3" stroke-width="2.5" stroke-linecap="round" stroke-linejoin="round"/>
</svg>
